<?xml version="1.0" encoding="utf-8"?>
<!-- Generator: Adobe Illustrator 22.0.0, SVG Export Plug-In . SVG Version: 6.00 Build 0)  -->
<svg version="1.1" id="_1" xmlns="http://www.w3.org/2000/svg" xmlns:xlink="http://www.w3.org/1999/xlink" x="0px" y="0px"
	 viewBox="0 0 398.4 196.3" style="enable-background:new 0 0 398.4 196.3;" xml:space="preserve">
<style type="text/css">
	.st0{fill:#006AB6;}
	.st1{fill:#00A9AF;}
</style>
<g>
	<g>
		<path class="st0" d="M225.5,134.1h-5.8v-7h-15.3V92.8h6.3v28.6h5.8V92.8h6.4v28.6h2.6V134.1z"/>
		<path class="st0" d="M243.7,119.4c-0.2,5.4-2.9,8.1-8.1,8.1c-2.6,0-4.6-0.8-6.1-2.3c-1.5-1.5-2.2-3.8-2.2-6.9v-7.2
			c0-3.1,0.7-5.4,2.2-6.9c1.5-1.5,3.5-2.3,6.1-2.3c2.6,0,4.6,0.8,6,2.3c1.4,1.5,2.1,3.8,2.1,6.8v5.6h-10.5v1.6
			c0,1.5,0.2,2.5,0.6,3.1c0.4,0.6,1,0.8,1.8,0.8c0.8,0,1.4-0.2,1.7-0.7c0.4-0.4,0.5-1.2,0.6-2.2H243.7z M237.9,112.2v-1.6
			c0-1.4-0.2-2.3-0.6-2.8c-0.4-0.5-1-0.8-1.8-0.8c-0.8,0-1.4,0.3-1.8,0.8c-0.4,0.5-0.6,1.5-0.6,2.9v1.5H237.9z"/>
		<path class="st0" d="M263.1,127.2H257v-9.9h-4.2v9.9h-6.1v-24.8h6.1v9.6h4.2v-9.6h6.1V127.2z"/>
		<path class="st0" d="M281.7,107.6h-5.2v19.6h-6.1v-19.6h-5.2v-5.3h16.5V107.6z"/>
		<path class="st0" d="M300.3,119.2c0,2.4-0.4,4.3-1.2,5.8c-0.9,1.7-2.5,2.5-4.8,2.5c-2,0-3.5-0.8-4.5-2.3v11.6h-6.1v-34.4h6.1v2.2
			c1.1-1.6,2.6-2.5,4.7-2.5c2.2,0,3.8,0.9,4.6,2.6c0.8,1.4,1.2,3.3,1.2,5.6V119.2z M295,118.6V111c0-1.3-0.2-2.2-0.6-2.8
			c-0.4-0.5-1.1-0.8-2-0.8c-0.9,0-1.6,0.3-2,0.8c-0.4,0.5-0.6,1.5-0.6,2.8v7.6c0,1.3,0.2,2.2,0.6,2.8c0.4,0.5,1.1,0.8,2,0.8
			c0.9,0,1.5-0.3,2-0.8C294.8,120.9,295,119.9,295,118.6z"/>
	</g>
	<path class="st0" d="M295.1,161.8h5.8v8.7l4.4-8.7h6.2l-5.6,10.4l5.9,14.4h-6.4l-3.8-9.5l-0.9,1.4v8h-5.8V161.8z"/>
	<path class="st0" d="M227.1,186.7h-5.8l0-18.7l-3.7,11.2h-3.8l-3.7-11.2l0,18.7h-5.8v-34.4h5.5l5.9,19.1l5.9-19.1h5.5V186.7z"/>
	<path class="st0" d="M247.8,176.4c0,7.1-3,10.6-9.1,10.6c-6,0-9.1-3.5-9.1-10.6v-13.9c0-7.1,3-10.6,9.1-10.6c6,0,9.1,3.5,9.1,10.6
		V176.4z M241.6,176.2v-13.6c0-1.9-0.2-3.2-0.7-3.9c-0.5-0.7-1.2-1-2.1-1c-0.9,0-1.7,0.3-2.1,1c-0.5,0.7-0.7,2-0.7,3.9v13.6
		c0,1.9,0.2,3.2,0.7,3.9c0.5,0.7,1.2,1,2.1,1c0.9,0,1.7-0.3,2.1-1C241.4,179.4,241.6,178.1,241.6,176.2z"/>
	<path class="st0" d="M268.1,177.4c0,6.4-3,9.6-9.1,9.6c-3.1,0-5.5-1-7-2.9c-1.3-1.6-2-4-2-7.1h6c0,1.3,0.3,2.3,0.8,3.1
		c0.5,0.8,1.3,1.1,2.2,1.1c1.1,0,1.9-0.3,2.3-1c0.5-0.7,0.7-1.8,0.7-3.4V176c0-1.5-0.2-2.5-0.7-3.2c-0.5-0.6-1.3-1-2.4-1h-2.3v-5.4
		h2.3c1,0,1.8-0.3,2.2-0.9c0.4-0.6,0.7-1.6,0.7-3v-1.1c0-1.3-0.2-2.3-0.7-2.9c-0.4-0.6-1.1-0.9-2-0.9c-0.8,0-1.3,0.2-1.8,0.7
		c-0.4,0.5-0.7,1-0.8,1.5c-0.1,0.5-0.1,1.2-0.1,2h-6c0-6.6,2.8-9.9,8.5-9.9c2.8,0,5,0.7,6.5,2.2c1.6,1.5,2.4,3.8,2.4,6.9v1.5
		c0,1.6-0.4,3-1.1,4.1c-0.7,1.1-1.6,1.9-2.8,2.3c1.2,0.4,2.2,1.2,3,2.3c0.8,1.2,1.2,2.7,1.2,4.7V177.4z"/>
	<path class="st0" d="M295.8,152.3l-8.1,28.2c-0.6,2-1.3,3.5-2.3,4.4c-1.2,1.2-3.1,1.7-5.7,1.7h-1.6v-5.8h1c1.6,0,2.6-0.8,3-2.4
		l0.7-2.5l-6.8-23.7h6.3c0,0,3.5,13.9,3.6,15.4h0.1c0.1-1,3.6-15.4,3.6-15.4H295.8z"/>
	<path class="st0" d="M330.3,178.7c0,2.4-0.4,4.3-1.2,5.8c-0.9,1.7-2.5,2.5-4.8,2.5c-2,0-3.5-0.8-4.5-2.3v11.6h-6.1v-34.4h6.1v2.2
		c1.1-1.6,2.6-2.5,4.7-2.5c2.2,0,3.8,0.9,4.6,2.6c0.8,1.4,1.2,3.3,1.2,5.6V178.7z M324.9,178.1v-7.6c0-1.3-0.2-2.2-0.6-2.8
		c-0.4-0.5-1.1-0.8-2-0.8s-1.6,0.3-2,0.8c-0.4,0.5-0.6,1.5-0.6,2.8v7.6c0,1.3,0.2,2.2,0.6,2.8c0.4,0.5,1.1,0.8,2,0.8s1.5-0.3,2-0.8
		C324.7,180.4,324.9,179.5,324.9,178.1z"/>
	<path class="st0" d="M349.2,186.7h-6.1v-2.3c-0.9,1.6-2.4,2.5-4.4,2.5c-2.1,0-3.7-0.6-4.7-1.9c-1.1-1.4-1.6-3.3-1.6-5.8
		c0-2.4,0.7-4.2,2-5.4c1.3-1.3,3.1-1.9,5.4-1.9h3.3v-2.2c0-1-0.2-1.7-0.5-2.2c-0.3-0.4-0.9-0.6-1.6-0.6c-1.4,0-2.2,0.8-2.3,2.5H333
		c0.1-2.5,0.9-4.5,2.4-5.8c1.5-1.3,3.5-2,6-2c5.3,0,7.9,2.5,7.9,7.5V186.7z M343.1,178v-2h-2.8c-1.8,0-2.7,1-2.7,2.9
		c0,1.9,0.8,2.9,2.5,2.9c1,0,1.8-0.3,2.4-1C342.9,180.3,343.1,179.3,343.1,178z"/>
	<g>
		<rect x="352.5" y="161.8" class="st0" width="6.1" height="24.8"/>
		<path class="st0" d="M354.6,155.3c0,0.9-0.3,1.6-0.9,2.2c-0.6,0.6-1.3,0.9-2.2,0.9s-1.6-0.3-2.2-0.9c-0.6-0.6-0.9-1.3-0.9-2.2
			c0-0.8,0.3-1.5,0.9-2.1c0.6-0.6,1.3-0.9,2.2-0.9c0.8,0,1.5,0.3,2.1,0.9C354.3,153.8,354.6,154.5,354.6,155.3z"/>
		<path class="st0" d="M362.6,155.3c0,0.9-0.3,1.6-0.9,2.2c-0.6,0.6-1.3,0.9-2.2,0.9c-0.9,0-1.6-0.3-2.2-0.9
			c-0.6-0.6-0.9-1.3-0.9-2.2c0-0.8,0.3-1.5,0.9-2.1c0.6-0.6,1.3-0.9,2.2-0.9c0.8,0,1.5,0.3,2.1,0.9
			C362.3,153.8,362.6,154.5,362.6,155.3z"/>
	</g>
	<path class="st0" d="M378.3,186.7h-6.1v-9.9h-4.2v9.9H362v-24.8h6.1v9.6h4.2v-9.6h6.1V186.7z"/>
	<path class="st0" d="M398.4,186.7h-6l0-13.4l-5.4,13.4h-5.3v-24.8h6l0,13.4l5.4-13.4h5.3V186.7z"/>
	<path class="st0" d="M223.6,56.5h5.8v8.7l4.4-8.7h6.2L234.6,67l5.9,14.4h-6.4l-3.8-9.5l-0.9,1.4v8h-5.8V56.5z"/>
	<path class="st0" d="M220.4,81.4h-15.9V47h15.9v5.8h-9.6v8.3h8.7v5.8h-8.7v8.6h9.6V81.4z"/>
	<path class="st0" d="M258.2,72.9c-0.1,2.8-0.8,5-2.2,6.5c-1.4,1.5-3.4,2.3-5.9,2.3c-2.5,0-4.6-0.8-6-2.3c-1.5-1.5-2.2-3.8-2.2-6.8
		v-7.3c0-3,0.7-5.3,2.2-6.8c1.5-1.5,3.5-2.3,6-2.3c2.6,0,4.6,0.7,5.9,2c1.3,1.4,2.1,3.6,2.2,6.6h-5.9c-0.1-1.3-0.3-2.1-0.6-2.6
		c-0.3-0.5-0.8-0.7-1.6-0.7c-0.7,0-1.2,0.3-1.6,0.8c-0.3,0.5-0.5,1.5-0.5,2.9v7.2c0,1.5,0.2,2.4,0.5,3c0.3,0.5,0.9,0.8,1.6,0.8
		c0.7,0,1.3-0.3,1.6-0.8c0.3-0.5,0.5-1.4,0.6-2.6H258.2z"/>
	<path class="st0" d="M278.2,81.4h-6.1V61.8h-4.2v19.6h-6.1V56.5h16.3V81.4z"/>
	<path class="st0" d="M297.8,73.6c-0.2,5.4-2.9,8.1-8.1,8.1c-2.6,0-4.6-0.8-6.1-2.3c-1.5-1.5-2.2-3.8-2.2-6.9v-7.2
		c0-3.1,0.7-5.4,2.2-6.9c1.5-1.5,3.5-2.3,6.1-2.3c2.6,0,4.6,0.8,6,2.3c1.4,1.5,2.1,3.8,2.1,6.8v5.6h-10.5v1.6c0,1.5,0.2,2.5,0.6,3.1
		c0.4,0.6,1,0.8,1.8,0.8c0.8,0,1.4-0.2,1.7-0.7c0.4-0.4,0.5-1.2,0.6-2.2H297.8z M292,66.4v-1.6c0-1.4-0.2-2.3-0.6-2.8
		c-0.4-0.5-1-0.8-1.8-0.8c-0.8,0-1.4,0.3-1.8,0.8c-0.4,0.5-0.6,1.5-0.6,2.9v1.5H292z"/>
	<path class="st0" d="M317.5,73.4c0,2.4-0.4,4.3-1.2,5.8c-0.9,1.7-2.5,2.5-4.8,2.5c-2,0-3.5-0.8-4.5-2.3v11.6h-6.1V56.5h6.1v2.2
		c1.1-1.6,2.6-2.5,4.7-2.5c2.2,0,3.8,0.9,4.6,2.6c0.8,1.4,1.2,3.3,1.2,5.6V73.4z M312.1,72.8v-7.6c0-1.3-0.2-2.2-0.6-2.8
		c-0.4-0.5-1.1-0.8-2-0.8c-0.9,0-1.6,0.3-2,0.8c-0.4,0.5-0.6,1.5-0.6,2.8v7.6c0,1.3,0.2,2.2,0.6,2.8c0.4,0.5,1.1,0.8,2,0.8
		c0.9,0,1.5-0.3,2-0.8C311.9,75.1,312.1,74.1,312.1,72.8z"/>
	<path class="st0" d="M337.1,61.8h-5.2v19.6h-6.1V61.8h-5.2v-5.3h16.5V61.8z"/>
	<path class="st0" d="M357.3,81.4h-6.1v-9.9H347v9.9H341V56.5h6.1v9.6h4.2v-9.6h6.1V81.4z"/>
	<path class="st0" d="M377.9,81.4h-6l0-13.4l-5.4,13.4h-5.3V56.5h6l0,13.4l5.4-13.4h5.3V81.4z"/>
	<g>
		<path class="st0" d="M396.4,47c-0.2,2-0.8,3.5-2,4.6c-1.2,1.1-2.6,1.6-4.5,1.6c-1.8,0-3.3-0.5-4.4-1.6c-1.1-1-1.8-2.6-1.9-4.7h3.8
			c0.1,0.7,0.3,1.4,0.8,1.8c0.5,0.5,1.1,0.7,1.8,0.7c0.8,0,1.3-0.2,1.8-0.7c0.4-0.5,0.7-1.1,0.8-1.8H396.4z"/>
		<path class="st0" d="M398.4,81.4h-6l0-13.4l-5.4,13.4h-5.3V56.5h6l0,13.4l5.4-13.4h5.3V81.4z"/>
	</g>
	<path class="st0" d="M228.5,42.5h-5.8v-7h-12.6v7h-5.8V29.8h1.9c1.1-3.1,1.8-6.3,2.2-9.7c0.4-3.4,0.6-8.2,0.6-14.4V1.2h17.3v28.6h2
		V42.5z M220.2,29.8V7h-4.9v3.9c0,4.7-0.2,8.3-0.6,10.9c-0.4,2.6-1.1,5.2-2,8H220.2z"/>
	<path class="st0" d="M248,27.8c-0.2,5.4-2.9,8.1-8.1,8.1c-2.6,0-4.6-0.8-6.1-2.3c-1.5-1.5-2.2-3.8-2.2-6.9v-7.2
		c0-3.1,0.7-5.4,2.2-6.9c1.5-1.5,3.5-2.3,6.1-2.3c2.6,0,4.6,0.8,6,2.3c1.4,1.5,2.1,3.8,2.1,6.8v5.6h-10.5v1.6c0,1.5,0.2,2.5,0.6,3.1
		c0.4,0.6,1,0.8,1.8,0.8c0.8,0,1.4-0.2,1.7-0.7c0.4-0.4,0.5-1.2,0.6-2.2H248z M242.2,20.6V19c0-1.4-0.2-2.3-0.6-2.8
		c-0.4-0.5-1-0.8-1.8-0.8c-0.8,0-1.4,0.3-1.8,0.8c-0.4,0.5-0.6,1.5-0.6,2.9v1.5H242.2z"/>
	<path class="st0" d="M298.3,35.6h-6.4l-3.8-9.5l-0.9,1.4v8h-5.8v-8l-0.9-1.4l-3.9,9.5h-6.3l5.9-14.4l-5.6-10.4h6.2l4.4,8.7v-8.7
		h5.8v8.7l4.4-8.7h6.2l-5.6,10.4L298.3,35.6z"/>
	<path class="st0" d="M268.7,27.6c0,2.4-0.4,4.3-1.2,5.8c-0.9,1.7-2.5,2.5-4.8,2.5c-2,0-3.5-0.8-4.5-2.3v11.6h-6.1V10.7h6.1v2.2
		c1.1-1.6,2.6-2.5,4.7-2.5c2.2,0,3.8,0.9,4.6,2.6c0.8,1.5,1.2,3.3,1.2,5.6V27.6z M263.3,27v-7.6c0-1.3-0.2-2.2-0.6-2.8
		c-0.4-0.5-1.1-0.8-2-0.8c-0.9,0-1.6,0.3-2,0.8c-0.4,0.5-0.6,1.5-0.6,2.8V27c0,1.3,0.2,2.2,0.6,2.8c0.4,0.5,1.1,0.8,2,0.8
		c0.9,0,1.5-0.3,2-0.8C263.1,29.3,263.3,28.3,263.3,27z"/>
	<path class="st0" d="M316.6,35.6h-6.1v-2.3c-0.9,1.6-2.4,2.5-4.4,2.5c-2.1,0-3.7-0.6-4.7-1.9c-1.1-1.4-1.6-3.3-1.6-5.8
		c0-2.4,0.7-4.2,2-5.4c1.3-1.3,3.1-1.9,5.4-1.9h3.3v-2.2c0-1-0.2-1.7-0.5-2.2c-0.3-0.4-0.9-0.6-1.6-0.6c-1.4,0-2.2,0.8-2.3,2.5h-5.8
		c0.1-2.5,0.9-4.5,2.4-5.8c1.5-1.3,3.5-2,6-2c5.3,0,7.9,2.5,7.9,7.5V35.6z M310.5,26.9v-2h-2.8c-1.8,0-2.7,1-2.7,2.9
		c0,1.9,0.8,2.9,2.5,2.9c1,0,1.8-0.3,2.4-1C310.3,29.1,310.5,28.2,310.5,26.9z"/>
	<path class="st0" d="M337.2,28.4c0,4.8-2.3,7.2-6.8,7.2h-9.7V10.7h9.5c2.3,0,4,0.6,5.1,1.7c1.1,1.1,1.6,2.8,1.6,5.1
		c0,1.3-0.2,2.4-0.5,3.2c-0.4,0.8-1,1.5-2.1,2.1C336.2,23.7,337.2,25.5,337.2,28.4z M331.3,18c0-1.7-0.8-2.6-2.5-2.6h-2.2v5.2h2.3
		c0.9,0,1.5-0.2,1.9-0.6C331.2,19.5,331.3,18.9,331.3,18z M331.7,28c0-1-0.2-1.7-0.6-2.2c-0.4-0.4-1.1-0.7-2.1-0.7h-2.3v5.7h2.3
		C330.8,30.9,331.7,30,331.7,28z"/>
	<path class="st0" d="M357.3,35.6h-6.1v-9.9H347v9.9H341V10.7h6.1v9.6h4.2v-9.6h6.1V35.6z"/>
	<path class="st0" d="M377.9,35.6h-6l0-13.4l-5.4,13.4h-5.3V10.7h6l0,13.4l5.4-13.4h5.3V35.6z"/>
	<g>
		<path class="st0" d="M396.4,1.2c-0.2,2-0.8,3.5-2,4.6c-1.2,1.1-2.6,1.6-4.5,1.6c-1.8,0-3.3-0.5-4.4-1.6c-1.1-1-1.8-2.6-1.9-4.7
			h3.8c0.1,0.7,0.3,1.4,0.8,1.8c0.5,0.5,1.1,0.7,1.8,0.7c0.8,0,1.3-0.2,1.8-0.7c0.4-0.5,0.7-1.1,0.8-1.8H396.4z"/>
		<path class="st0" d="M398.4,35.6h-6l0-13.4l-5.4,13.4h-5.3V10.7h6l0,13.4l5.4-13.4h5.3V35.6z"/>
	</g>
</g>
<g>
	<polygon class="st1" points="93.2,47.6 93.2,0 46,0 46,47.6 0,47.6 0,93.9 46,93.9 46,140.3 93.2,140.3 93.2,93.9 140.3,47.6 	"/>
	<g>
		<polygon class="st0" points="139.5,93.9 93.1,140.3 139.5,140.3 139.5,186.7 186.6,186.7 186.6,93.9 163,93.9 		"/>
		
			<ellipse transform="matrix(0.9738 -0.2275 0.2275 0.9738 -11.7233 38.9294)" class="st0" cx="163" cy="70.3" rx="23.6" ry="23.6"/>
	</g>
</g>
</svg>
